<svg width="40" height="40" viewBox="0 0 40 40" fill="none" xmlns="http://www.w3.org/2000/svg">
<rect width="40" height="40" rx="10" fill="black"/>
<g clip-path="url(#clip0_32_3060)">
<path d="M17.9121 27.6236L30.7718 20.8196C31.081 20.6559 31.2654 20.3494 31.2654 20.0013C31.2654 19.6506 31.081 19.3466 30.7718 19.1829L17.9121 12.3764C17.7718 12.3036 17.6237 12.2646 17.4782 12.2646C17.3146 12.2646 17.1509 12.3088 17.0002 12.3997C16.7145 12.5712 16.5508 12.8622 16.5508 13.1947V26.8052C16.5508 27.1378 16.7145 27.4287 17.0002 27.6002C17.286 27.7717 17.6185 27.7821 17.9121 27.6262V27.6236Z" fill="#98E704"/>
<path d="M15.2418 21.4001L11.7736 23.216V17.02L15.2418 18.8359V17.0771L11.7372 15.2404C11.4125 15.0715 11.0306 15.0819 10.7162 15.2716C10.4019 15.4612 10.2148 15.7938 10.2148 16.1601V24.0733C10.2148 24.4397 10.4019 24.7722 10.7162 24.9618C10.8825 25.0632 11.067 25.1125 11.254 25.1125C11.4177 25.1125 11.584 25.0736 11.7372 24.993L15.2418 23.1563V21.3975V21.4001Z" fill="#98E704"/>
</g>
<defs>
<clipPath id="clip0_32_3060">
<rect width="21.051" height="15.4706" fill="white" transform="translate(10.2148 12.2646)"/>
</clipPath>
</defs>
</svg>
