<svg width="40" height="40" viewBox="0 0 40 40" fill="none" xmlns="http://www.w3.org/2000/svg">
<rect width="40" height="40" rx="10" fill="black"/>
<g clip-path="url(#clip0_32_3027)">
<path d="M23.3217 12.1777C19.0099 12.1777 15.5 15.6851 15.5 19.9994C15.5 24.3138 19.0073 27.8211 23.3217 27.8211C27.636 27.8211 31.1434 24.3138 31.1434 19.9994C31.1434 15.6851 27.6335 12.1777 23.3217 12.1777Z" fill="#2D81FF"/>
<path d="M15.2404 24.3839C15.1007 24.3968 14.961 24.4046 14.8188 24.4046C12.3874 24.4046 10.4087 22.4259 10.4087 19.9945C10.4087 17.5632 12.39 15.5871 14.8213 15.5871C14.9636 15.5871 15.1059 15.5948 15.2455 15.6078C15.5197 15.106 15.8379 14.6352 16.1948 14.1955C15.7525 14.0921 15.2947 14.0352 14.8213 14.0352C11.5339 14.0352 8.85938 16.7096 8.85938 19.9971C8.85938 23.2846 11.5339 25.9591 14.8213 25.9591C15.2921 25.9591 15.7525 25.9022 16.1922 25.7987C15.8353 25.359 15.5145 24.8883 15.243 24.3865L15.2404 24.3839Z" fill="#2D81FF"/>
</g>
<defs>
<clipPath id="clip0_32_3027">
<rect width="22.2804" height="15.6434" fill="white" transform="translate(8.85938 12.1777)"/>
</clipPath>
</defs>
</svg>
