<svg width="40" height="40" viewBox="0 0 40 40" fill="none" xmlns="http://www.w3.org/2000/svg">
<rect width="40" height="40" rx="10" fill="black"/>
<g clip-path="url(#clip0_32_3034)">
<path d="M16.5577 10.8027H28.1322C28.8198 10.8027 29.3781 11.361 29.3781 12.0486V23.6231C29.3781 24.3106 28.8198 24.8689 28.1322 24.8689H16.5603C15.8728 24.8689 15.3145 24.3106 15.3145 23.6231V12.0486C15.3145 11.361 15.8728 10.8027 16.5603 10.8027H16.5577Z" fill="#FF2156"/>
<path d="M18.429 26.1182V27.6225C18.429 27.9663 18.1499 28.2454 17.8061 28.2454H12.1972C11.8534 28.2454 11.5743 27.9663 11.5743 27.6225V22.0136C11.5743 21.6698 11.8534 21.3907 12.1972 21.3907H14.066V19.8398H12.1972C10.9979 19.8398 10.0234 20.8143 10.0234 22.0136V27.6225C10.0234 28.8218 10.9979 29.7963 12.1972 29.7963H17.8061C19.0054 29.7963 19.9799 28.8218 19.9799 27.6225V26.1182H18.429Z" fill="#FF2156"/>
</g>
<defs>
<clipPath id="clip0_32_3034">
<rect width="19.3572" height="18.9927" fill="white" transform="translate(10.0234 10.8027)"/>
</clipPath>
</defs>
</svg>
